<svg xmlns="http://www.w3.org/2000/svg" xmlns:xlink="http://www.w3.org/1999/xlink" width="239" zoomAndPan="magnify" viewBox="0 0 179.25 217.499992" height="290" preserveAspectRatio="xMidYMid meet" version="1.0"><defs><clipPath id="7ce6051119"><path d="M 3 2 L 177.757812 2 L 177.757812 214 L 3 214 Z M 3 2 " clip-rule="nonzero"/></clipPath></defs><g clip-path="url(#7ce6051119)"><path fill="#000000" d="M 13.660156 17.269531 C 7.910156 25.648438 3.25 32.757812 3.300781 33.070312 C 3.394531 33.683594 14.613281 41.6875 33.035156 54.289062 C 64.464844 75.78125 81.542969 87.945312 81.546875 88.839844 C 81.546875 89.386719 70.003906 98.453125 55.894531 108.992188 C 41.785156 119.53125 30.238281 128.65625 30.238281 129.273438 C 30.238281 129.890625 30.753906 130.527344 31.382812 130.691406 C 32.011719 130.851562 60.199219 149.46875 94.019531 172.054688 C 127.839844 194.644531 156.1875 213.125 157.011719 213.125 C 157.941406 213.125 161.828125 208.054688 167.128906 199.929688 C 171.867188 192.671875 176.191406 186.449219 176.746094 186.109375 C 177.886719 185.402344 178.136719 181.003906 177.039062 181.003906 C 176.027344 181.003906 96.707031 127.90625 96.480469 127.078125 C 96.378906 126.703125 107.820312 117.769531 121.90625 107.222656 C 135.992188 96.675781 147.519531 87.757812 147.519531 87.40625 C 147.519531 87.050781 142.878906 83.582031 137.210938 79.699219 C 125.863281 71.925781 110.195312 61.105469 95.109375 50.613281 C 87.851562 45.578125 80.589844 40.550781 73.320312 35.539062 C 52.941406 21.496094 28.003906 4.046875 26.839844 3.019531 C 26.234375 2.480469 25.367188 2.039062 24.921875 2.039062 C 24.472656 2.039062 19.40625 8.894531 13.660156 17.269531 " fill-opacity="1" fill-rule="evenodd"/><path fill="#000000" d="M 13.660156 17.269531 C 7.910156 25.648438 3.25 32.757812 3.300781 33.070312 C 3.394531 33.683594 14.613281 41.6875 33.035156 54.289062 C 64.464844 75.78125 81.542969 87.945312 81.546875 88.839844 C 81.546875 89.386719 70.003906 98.453125 55.894531 108.992188 C 41.785156 119.53125 30.238281 128.65625 30.238281 129.273438 C 30.238281 129.890625 30.753906 130.527344 31.382812 130.691406 C 32.011719 130.851562 60.199219 149.46875 94.019531 172.054688 C 127.839844 194.644531 156.1875 213.125 157.011719 213.125 C 157.941406 213.125 161.828125 208.054688 167.128906 199.929688 C 171.867188 192.671875 176.191406 186.449219 176.746094 186.109375 C 177.886719 185.402344 178.136719 181.003906 177.039062 181.003906 C 176.027344 181.003906 96.707031 127.90625 96.480469 127.078125 C 96.378906 126.703125 107.820312 117.769531 121.90625 107.222656 C 135.992188 96.675781 147.519531 87.757812 147.519531 87.40625 C 147.519531 87.050781 142.878906 83.582031 137.210938 79.699219 C 125.863281 71.925781 110.195312 61.105469 95.109375 50.613281 C 87.851562 45.578125 80.589844 40.550781 73.320312 35.539062 C 52.941406 21.496094 28.003906 4.046875 26.839844 3.019531 C 26.234375 2.480469 25.367188 2.039062 24.921875 2.039062 C 24.472656 2.039062 19.40625 8.894531 13.660156 17.269531 " fill-opacity="1" fill-rule="evenodd"/></g></svg>